<?xml version="1.0" encoding="iso-8859-1"?>
<!-- Generator: Adobe Illustrator 19.0.0, SVG Export Plug-In . SVG Version: 6.00 Build 0)  -->
<svg xmlns="http://www.w3.org/2000/svg" xmlns:xlink="http://www.w3.org/1999/xlink" version="1.1" id="Capa_1" x="0px" y="0px" viewBox="0 0 296.609 296.609" style="enable-background:new 0 0 296.609 296.609;" xml:space="preserve" width="512px" height="512px">
<g>
	<path d="M76.548,147.93c1.712,0,3.451-0.368,5.101-1.145L224.82,79.407c5.997-2.821,8.57-9.971,5.748-15.967   c-2.822-5.997-9.973-8.569-15.967-5.748L71.431,125.07c-5.997,2.821-8.57,9.971-5.748,15.967   C67.728,145.382,72.044,147.93,76.548,147.93z" fill="#91DC5A"/>
	<path d="M77.339,108.782c1.735,0,3.499-0.379,5.169-1.178l142.741-68.272c5.979-2.859,8.508-10.024,5.647-16.003   c-2.858-5.978-10.023-8.507-16.003-5.647L72.152,85.953c-5.979,2.859-8.507,10.024-5.648,16.003   C68.566,106.265,72.861,108.782,77.339,108.782z" fill="#91DC5A"/>
	<path d="M121.01,50.091c1.731,0,3.491-0.377,5.159-1.173c11.506-5.49,23.148-11.139,34.408-16.602   c6.542-3.174,13.083-6.348,19.631-9.507c5.969-2.88,8.473-10.054,5.593-16.023c-2.88-5.969-10.053-8.472-16.022-5.593   c-6.563,3.167-13.12,6.348-19.678,9.529c-11.225,5.446-22.832,11.077-34.268,16.534c-5.981,2.854-8.517,10.017-5.662,15.998   C112.23,47.57,116.528,50.091,121.01,50.091z" fill="#91DC5A"/>
	<path d="M214.594,134.811l-71.135,33.535c-5.994,2.826-8.563,9.977-5.737,15.972c2.047,4.342,6.361,6.886,10.862,6.886   c1.714,0,3.456-0.369,5.109-1.148l71.135-33.535c5.994-2.826,8.563-9.977,5.737-15.972   C227.739,134.553,220.589,131.986,214.594,134.811z" fill="#91DC5A"/>
	<path d="M230.964,178.384c-2.781-6.017-9.914-8.642-15.928-5.857l-50.087,23.078c-4.246,1.963-7.131,6.215-7.131,10.893v12.861h-20   v-13.762c0-4.191-2.02-8.079-5.603-10.256l-30.371-18.504l122.934-57.831c5.997-2.821,8.591-9.971,5.769-15.967   c-2.822-5.997-9.958-8.568-15.956-5.748L71.426,164.665c-5.997,2.821-8.568,9.971-5.745,15.967c1.212,2.576,3.06,4.514,5.435,5.67   l42.703,26.045v7.012h-0.667c-8.284,0-15.333,6.716-15.333,15v15c0,8.284,7.049,15,15.333,15h1.114   c0.4,17.878,15.008,32.25,32.981,32.25s32.581-14.372,32.981-32.25h0.923c8.284,0,14.667-6.716,14.667-15v-15   c0-7.946-6-14.433-14-14.949v-5.239l43.122-19.858C230.956,191.531,233.745,184.4,230.964,178.384z" fill="#91DC5A"/>
</g>
<g>
</g>
<g>
</g>
<g>
</g>
<g>
</g>
<g>
</g>
<g>
</g>
<g>
</g>
<g>
</g>
<g>
</g>
<g>
</g>
<g>
</g>
<g>
</g>
<g>
</g>
<g>
</g>
<g>
</g>
</svg>
